<svg viewBox="0 0 24 24" width="24" height="24" fill="#E1306C" xmlns="http://www.w3.org/2000/svg"><path d="M12 2.2c3.3 0 3.7 0 5.1.1 1.2.1 1.9.2 2.4.4.6.2 1 .5 1.5 1 .4.4.7.9 1 1.5.2.5.3 1.2.4 2.4.1 1.4.1 1.8.1 5.1s0 3.7-.1 5.1c-.1 1.2-.2 1.9-.4 2.4-.2.6-.5 1-1 1.5-.4.4-.9.7-1.5 1-.5.2-1.2.3-2.4.4-1.4.1-1.8.1-5.1.1s-3.7 0-5.1-.1c-1.2-.1-1.9-.2-2.4-.4-.6-.2-1-.5-1.5-1-.4-.4-.7-.9-1-1.5-.2-.5-.3-1.2-.4-2.4C2.2 15.7 2.2 15.3 2.2 12s0-3.7.1-5.1c.1-1.2.2-1.9.4-2.4.2-.6.5-1 1-1.5.4-.4.9-.7 1.5-1 .5-.2 1.2-.3 2.4-.4C8.3 2.2 8.7 2.2 12 2.2zm0 2.8c-3.2 0-3.6 0-4.9.1-1 .1-1.5.2-1.9.4-.5.2-.8.4-1.2.8-.4.4-.6.7-.8 1.2-.2.4-.3.9-.4 1.9-.1 1.3-.1 1.7-.1 4.9s0 3.6.1 4.9c.1 1 .2 1.5.4 1.9.2.5.4.8.8 1.2.4.4.7.6 1.2.8.4.2.9.3 1.9.4 1.3.1 1.7.1 4.9.1s3.6 0 4.9-.1c1-.1 1.5-.2 1.9-.4.5-.2.8-.4 1.2-.8.4-.4.6-.7.8-1.2.2-.4.3-.9.4-1.9.1-1.3.1-1.7.1-4.9s0-3.6-.1-4.9c-.1-1-.2-1.5-.4-1.9-.2-.5-.4-.8-.8-1.2-.4-.4-.7-.6-1.2-.8-.4-.2-.9-.3-1.9-.4-1.3-.1-1.7-.1-4.9-.1zm0 3.2a5.8 5.8 0 110 11.6 5.8 5.8 0 010-11.6zm7-2.1a1.4 1.4 0 110 2.8 1.4 1.4 0 010-2.8z"/></svg>
