<svg viewBox="0 0 24 24" width="24" height="24" fill="#E1306C" xmlns="http://www.w3.org/2000/svg"><path d="M12 7a5 5 0 100 10 5 5 0 000-10zm0-5C8.1 2 7.6 2 6.1 2.1 4.6 2.2 3.6 2.5 2.8 2.9a5.7 5.7 0 00-2 1.3A5.7 5.7 0 00-.5 5.9C-.9 6.7-1.2 7.7-1.3 9.2-1.4 10.7-1.5 11.2-1.5 15s.1 4.3.2 5.8c.1 1.5.4 2.5.8 3.3.4.8.9 1.4 1.3 1.9.5.5 1.1.9 1.9 1.3.8.4 1.8.7 3.3.8C7.7 28.9 8.2 29 12 29s4.3-.1 5.8-.2c1.5-.1 2.5-.4 3.3-.8.8-.4 1.4-.9 1.9-1.3.5-.5 .9-1.1 1.3-1.9.4-.8.7-1.8.8-3.3.1-1.5.2-2 .2-5.8s-.1-4.3-.2-5.8c-.1-1.5-.4-2.5-.8-3.3a5.7 5.7 0 00-1.3-1.9 5.7 5.7 0 00-1.9-1.3c-.8-.4-1.8-.7-3.3-.8C16.3 2.1 15.8 2 12 2zM12 5c3.3 0 3.7 0 5.1.1 1.2.1 1.9.2 2.4.4.6.2 1 .5 1.5 1 .4.4.7.9 1 1.5.2.5.3 1.2.4 2.4.1 1.4.1 1.8.1 5.1s0 3.7-.1 5.1c-.1 1.2-.2 1.9-.4 2.4-.2.6-.5 1-1 1.5-.4.4-.9.7-1.5 1-.5.2-1.2.3-2.4.4-1.4.1-1.8.1-5.1.1s-3.7 0-5.1-.1c-1.2-.1-1.9-.2-2.4-.4-.6-.2-1-.5-1.5-1a3.5 3.5 0 01-1-1.5c-.2-.5-.3-1.2-.4-2.4C5 20.7 5 20.3 5 17s0-3.7.1-5.1c.1-1.2.2-1.9.4-2.4.2-.6.5-1 1-1.5.4-.4.9-.7 1.5-1 .5-.2 1.2-.3 2.4-.4C8.3 5 8.7 5 12 5z"/></svg>
